Coordinates
version=1
nRows=9
nColumns=63
inDegrees=yes

Units are S.I. units (second, meters, Newtons, ...)
If the header above contains a line with 'inDegrees', this indicates whether rotational values are in degrees (yes) or radians (no).

endheader
time	pelvis_tilt	pelvis_list	pelvis_rotation	pelvis_tx	pelvis_ty	pelvis_tz	hip_flexion_r	hip_adduction_r	hip_rotation_r	knee_angle_r	knee_angle_r_beta	ankle_angle_r	subtalar_angle_r	mtp_angle_r	hip_flexion_l	hip_adduction_l	hip_rotation_l	knee_angle_l	knee_angle_l_beta	ankle_angle_l	subtalar_angle_l	mtp_angle_l	L5_S1_Flex_Ext	L5_S1_Lat_Bending	L5_S1_axial_rotation	L4_L5_Flex_Ext	L4_L5_Lat_Bending	L4_L5_axial_rotation	L3_L4_Flex_Ext	L3_L4_Lat_Bending	L3_L4_axial_rotation	L2_L3_Flex_Ext	L2_L3_Lat_Bending	L2_L3_axial_rotation	L1_L2_Flex_Ext	L1_L2_Lat_Bending	L1_L2_axial_rotation	L1_T12_Flex_Ext	L1_T12_Lat_Bending	L1_T12_axial_rotation	Abs_r3	Abs_r2	Abs_r1	Abs_t1	Abs_t2	neck_flexion	neck_bending	neck_rotation	arm_flex_r	arm_add_r	arm_rot_r	elbow_flex_r	pro_sup_r	wrist_flex_r	wrist_dev_r	arm_flex_l	arm_add_l	arm_rot_l	elbow_flex_l	pro_sup_l	wrist_flex_l	wrist_dev_l
      3.10000000	     -2.80166091	      2.43862555	    103.80840890	      0.28885595	      0.65072064	      0.89339129	     -5.38794581	      5.53588307	    -18.57483435	      0.33337103	      0.00581842	     14.31056178	     -4.79573511	      0.00000000	     -3.03642537	     -3.48019652	     25.11505319	      0.52886431	      0.00923042	     25.38523234	    -13.57563069	      0.00000000	      0.20424652	      0.22742410	     -1.98656707	      0.37930621	      0.30247405	     -2.11072752	      0.33555661	      0.55295896	     -2.11072752	      0.23343335	      0.55295896	     -1.73824619	      0.18966332	      0.46376322	     -1.61408575	      0.11670646	      0.35227993	     -1.48992531	      1.45891247	      2.57266690	    -11.04869010	      0.00000000	      0.00000000	      0.93166342	      6.76456397	     -3.72513642	    -68.79187952	    -75.11009253	    -54.11204242	      8.37165167	     16.93308042	    -12.06405718	      2.84789714	    -83.70925500	    -79.87519563	    -46.07661404	      6.07990902	     53.73530476	    -16.25625021	     -4.67023173
      3.11666667	     -2.80759438	      2.43360932	    103.82275918	      0.28895965	      0.65065148	      0.89376782	     -5.38597813	      5.54282666	    -18.99783312	      0.34454281	      0.00601341	     14.03271889	     -4.52877762	      0.00000000	     -3.04867288	     -3.50395663	     25.14731194	      0.55213671	      0.00963660	     25.35667682	    -13.45420643	      0.00000000	      0.19939099	      0.22352329	     -2.01199062	      0.37028901	      0.29728598	     -2.13774003	      0.32757946	      0.54347453	     -2.13774003	      0.22788397	      0.54347453	     -1.76049179	      0.18515448	      0.45580870	     -1.63474238	      0.11393201	      0.34623758	     -1.50899296	      1.42422992	      2.52854017	    -11.19008822	      0.00000000	      0.00000000	      0.89116917	      6.99094262	     -3.34799735	    -67.47436394	    -75.21360309	    -55.46598841	      8.34536599	     15.63019464	    -12.04447208	      3.17173522	    -84.03550271	    -79.77899289	    -46.11458939	      5.89027517	     53.63070410	    -16.16442957	     -4.70623744
      3.13333333	     -2.79589703	      2.43833356	    103.93888022	      0.28895551	      0.65056749	      0.89412245	     -5.38354115	      5.58199585	    -19.42660170	      0.35112363	      0.00612826	     13.96621986	     -4.30233984	      0.00000000	     -3.05519809	     -3.55201152	     25.19219975	      0.58165338	      0.01015177	     25.37243370	    -13.26364243	      0.00000000	      0.19394940	      0.22214186	     -2.04668655	      0.36018343	      0.29544867	     -2.17460446	      0.31863947	      0.54011572	     -2.17460446	      0.22166477	      0.54011572	     -1.79085073	      0.18010141	      0.45299168	     -1.66293282	      0.11082269	      0.34409774	     -1.53501491	      1.38536117	      2.51291314	    -11.38305658	      0.00000000	      0.00000000	      0.85218874	      7.16666455	     -3.12356110	    -66.52022590	    -75.23831551	    -56.86709734	      8.43662831	     14.38735277	    -12.06793936	      3.21322410	    -84.55279157	    -79.72809365	    -46.09323112	      5.72063933	     53.63462635	    -15.98361322	     -5.11577856
      3.15000000	     -2.79158802	      2.42494858	    103.91945239	      0.28907998	      0.65046247	      0.89465415	     -5.33476203	      5.57911950	    -19.44987214	      0.38034049	      0.00663819	     14.00452346	     -4.31542148	      0.00000000	     -3.05681984	     -3.56304709	     25.20323206	      0.58956900	      0.01028992	     25.36921085	    -13.25069632	      0.00000000	      0.18739651	      0.22404861	     -2.04876360	      0.34801406	      0.29798464	     -2.17681132	      0.30787373	      0.54475178	     -2.17681132	      0.21417547	      0.54475178	     -1.79266815	      0.17401640	      0.45687992	     -1.66462042	      0.10707837	      0.34705129	     -1.53657270	      1.33855455	      2.53448263	    -11.39460850	      0.00000000	      0.00000000	      0.84778423	      7.16017154	     -3.11535187	    -66.52743923	    -75.29851728	    -56.89002447	      8.42898469	     14.37477130	    -12.07217025	      3.20475753	    -84.57405411	    -79.78409150	    -46.10287456	      5.67685709	     53.63050282	    -15.99407791	     -5.12613660
      3.16666667	     -2.73900404	      2.40371417	    104.14255145	      0.28881252	      0.65024110	      0.89504143	     -5.17396983	      5.60410394	    -20.76543343	      0.66768658	      0.01165333	     14.63180950	     -2.95636867	      0.00000000	     -2.73599956	     -3.56811756	     22.55318479	      1.16297786	      0.02029779	     26.83162394	     -8.93721776	      0.00000000	      0.18683247	      0.23412512	     -2.09828503	      0.34696657	      0.31138641	     -2.22942785	      0.30694706	      0.56925182	     -2.22942785	      0.21353083	      0.56925182	     -1.83599940	      0.17349263	      0.47742794	     -1.70485659	      0.10675607	      0.36265981	     -1.57371377	      1.33452563	      2.64847018	    -11.67003185	      0.00000000	      0.00000000	      0.97802364	      6.79881110	     -2.97498808	    -66.97618134	    -75.27395910	    -59.40486362	      8.81578391	     16.46537701	    -12.44644812	      3.60319447	    -86.43140943	    -79.65143121	    -46.77472300	      6.37689662	     53.25535416	    -16.47901737	     -4.86063329
      3.18333333	     -2.67352413	      2.45085872	    104.19077836	      0.28891592	      0.64997605	      0.89469209	     -5.37843985	      5.79123125	    -18.92515576	      0.35126642	      0.00613076	     14.32076708	     -5.61335409	      0.00000000	     -3.03729523	     -3.74637067	     24.80718657	      0.67244688	      0.01173641	     26.19585050	    -11.82138185	      0.00000000	      0.18933327	      0.24426118	     -2.10013028	      0.35161081	      0.32486737	     -2.23138842	      0.31105562	      0.59389663	     -2.23138842	      0.21638899	      0.59389663	     -1.83761400	      0.17581487	      0.49809739	     -1.70635585	      0.10818503	      0.37836056	     -1.57509771	      1.35238858	      2.76313130	    -11.68029459	      0.00000000	      0.00000000	      1.00133333	      6.51363539	     -3.13476548	    -67.72603071	    -75.47530017	    -58.20194260	      8.37528479	     16.54167705	    -12.15042533	      3.87948762	    -85.82962865	    -80.00430530	    -44.94521888	      5.79817176	     52.67053895	    -15.94156667	     -5.15359531
      3.20000000	     -2.58981141	      2.46158975	    104.20138022	      0.28899713	      0.64981936	      0.89477453	     -5.36386141	      5.89522230	    -18.58138293	      0.34607015	      0.00604006	     14.51655403	     -6.07457966	      0.00000000	     -3.02671914	     -3.85796603	     24.16360350	      0.71541995	      0.01248643	     26.74682104	    -10.67600077	      0.00000000	      0.19090148	      0.25860946	     -2.10871706	      0.35452314	      0.34395058	     -2.24051187	      0.31363204	      0.62878303	     -2.24051187	      0.21818130	      0.62878303	     -1.84512742	      0.17727111	      0.52735641	     -1.71333261	      0.10908110	      0.40058605	     -1.58153779	      1.36359017	      2.92544190	    -11.72805165	      0.00000000	      0.00000000	      1.00772860	      6.13493316	     -3.23546551	    -68.39203263	    -75.76454941	    -57.17197769	      7.92089104	     18.55589441	    -11.94206568	      4.31808825	    -85.68245870	    -80.18738850	    -44.02091801	      5.70192882	     52.69314799	    -15.76984907	     -4.68376922
      3.21666667	     -2.56418734	      2.36966604	    104.13980738	      0.28898631	      0.64965977	      0.89572407	     -5.00636448	      5.79743153	    -18.77686836	      0.72183547	      0.01259841	     15.01354961	     -5.73431445	      0.00000000	     -2.59773410	     -3.72765074	     23.20925910	      1.39519090	      0.02435067	     27.35714885	     -9.79529398	      0.00000000	      0.19091380	      0.26734931	     -2.11687421	      0.35454603	      0.35557458	     -2.24917885	      0.31365229	      0.65003310	     -2.24917885	      0.21819539	      0.65003310	     -1.85226494	      0.17728256	      0.54517870	     -1.71996030	      0.10908815	      0.41412407	     -1.58765566	      1.36367822	      3.02430881	    -11.77341932	      0.00000000	      0.00000000	      1.08010990	      5.99779791	     -3.15345527	    -68.79184657	    -75.88354697	    -57.45030332	      8.09304556	     19.28716242	    -12.12407618	      4.32835540	    -85.93430605	    -80.11810871	    -44.21515210	      6.08247757	     52.43340036	    -15.96944331	     -4.11452735
      3.23333333	     -2.13835796	      2.47500743	    104.19621238	      0.28799930	      0.64931424	      0.89527086	     -5.19326696	      6.28459003	    -16.61694316	      0.31626977	      0.00551995	     14.43635002	     -8.37820435	      0.00000000	     -2.95570861	     -4.30087492	     25.18814931	      0.73339917	      0.01280023	     27.15711203	    -11.89080909	      0.00000000	      0.19731403	      0.34282972	     -2.08958089	      0.36643188	      0.45596352	     -2.22017970	      0.32416721	      0.83355617	     -2.22017970	      0.22551020	      0.83355617	     -1.82838328	      0.18322581	      0.69909836	     -1.69778448	      0.11274523	      0.53104323	     -1.56718567	      1.40939436	      3.87815832	    -11.62162206	      0.00000000	      0.00000000	      1.19239593	      4.92952878	     -3.10681258	    -73.27335845	    -75.80455826	    -56.94572897	      8.16147002	     16.35836639	    -11.62765140	      5.09623257	    -82.81318283	    -80.67118061	    -39.14571076	      5.75013023	     52.21454328	    -16.54661428	     -3.04532692
